<mxfile host="Electron" modified="2023-08-21T14:45:26.933Z" agent="Mozilla/5.0 (Windows NT 10.0; Win64; x64) AppleWebKit/537.36 (KHTML, like Gecko) draw.io/21.6.8 Chrome/114.0.5735.289 Electron/25.5.0 Safari/537.36" etag="NdQIgIfYvKv-ZLFAeer0" version="21.6.8" type="device" pages="3">
  <diagram name="2.1" id="rFx3bkhWb1EcT9nqkbrG">
    <mxGraphModel dx="1818" dy="1270" grid="1" gridSize="10" guides="1" tooltips="1" connect="0" arrows="0" fold="1" page="0" pageScale="1" pageWidth="850" pageHeight="1100" math="0" shadow="0">
      <root>
        <mxCell id="0" />
        <mxCell id="1" parent="0" />
        <mxCell id="4TtnOZNpE7GWnTWrPaKu-1" value="Nhân viên vận chuyển" style="html=1;dashed=0;whiteSpace=wrap;fontStyle=1;fillColor=#f5f5f5;fontColor=#333333;strokeColor=#7030A0;strokeWidth=2;fontFamily=Times New Roman;fontSize=12;" parent="1" vertex="1">
          <mxGeometry x="-310" y="75" width="100" height="50" as="geometry" />
        </mxCell>
        <mxCell id="4TtnOZNpE7GWnTWrPaKu-2" value="Nhân viên kho" style="html=1;dashed=0;whiteSpace=wrap;fontStyle=1;fillColor=#f5f5f5;fontColor=#333333;strokeColor=#FFC000;strokeWidth=2;fontFamily=Times New Roman;fontSize=12;" parent="1" vertex="1">
          <mxGeometry x="-310" y="215" width="100" height="50" as="geometry" />
        </mxCell>
        <mxCell id="4TtnOZNpE7GWnTWrPaKu-3" value="Nhân viên" style="html=1;dashed=0;whiteSpace=wrap;fontStyle=1;fillColor=#f5f5f5;strokeColor=#FF0000;fontColor=#333333;strokeWidth=2;fontFamily=Times New Roman;fontSize=12;" parent="1" vertex="1">
          <mxGeometry x="-310" y="-110" width="100" height="50" as="geometry" />
        </mxCell>
        <mxCell id="4TtnOZNpE7GWnTWrPaKu-4" value="4&lt;span style=&quot;white-space: pre;&quot;&gt;&#x9;&lt;/span&gt;Hóa đơn bán hàng" style="html=1;dashed=0;whiteSpace=wrap;shape=mxgraph.dfd.dataStoreID;align=left;spacingLeft=8;points=[[0,0],[0.5,0],[1,0],[0,0.5],[1,0.5],[0,1],[0.5,1],[1,1]];fontSize=12;verticalAlign=middle;fillColor=#dae8fc;fontStyle=1;fontFamily=Times New Roman;strokeColor=#6c8ebf;" parent="1" vertex="1">
          <mxGeometry x="200" y="145" width="140" height="30" as="geometry" />
        </mxCell>
        <mxCell id="4TtnOZNpE7GWnTWrPaKu-5" value="5&lt;span style=&quot;white-space: pre; font-size: 12px;&quot;&gt;&#x9;&lt;/span&gt;Danh sách đơn hàng" style="html=1;dashed=0;whiteSpace=wrap;shape=mxgraph.dfd.dataStoreID;align=left;spacingLeft=8;points=[[0,0],[0.5,0],[1,0],[0,0.5],[1,0.5],[0,1],[0.5,1],[1,1]];fontSize=12;verticalAlign=middle;fillColor=#dae8fc;fontStyle=1;fontFamily=Times New Roman;strokeColor=#6c8ebf;" parent="1" vertex="1">
          <mxGeometry x="200" y="-15" width="150" height="30" as="geometry" />
        </mxCell>
        <mxCell id="4TtnOZNpE7GWnTWrPaKu-6" value="2.1.1&#xa;&#xa;KIỂM TRA ĐƠN" style="swimlane;fontStyle=1;childLayout=stackLayout;horizontal=1;startSize=20;fillColor=#bac8d3;horizontalStack=0;resizeParent=1;resizeParentMax=0;resizeLast=0;collapsible=0;marginBottom=0;swimlaneFillColor=#bac8d3;fontSize=12;whiteSpace=wrap;gradientColor=none;rounded=1;glass=0;verticalAlign=top;spacing=-1;fontFamily=Times New Roman;" parent="1" vertex="1">
          <mxGeometry x="-40" y="-200" width="120" height="80" as="geometry" />
        </mxCell>
        <mxCell id="4TtnOZNpE7GWnTWrPaKu-7" value="3&lt;span style=&quot;white-space: pre; font-size: 12px;&quot;&gt;&#x9;&lt;/span&gt;Danh sách các món ăn" style="html=1;dashed=0;whiteSpace=wrap;shape=mxgraph.dfd.dataStoreID;align=left;spacingLeft=8;points=[[0,0],[0.5,0],[1,0],[0,0.5],[1,0.5],[0,1],[0.5,1],[1,1]];fontSize=12;verticalAlign=middle;fillColor=#dae8fc;fontStyle=1;fontFamily=Times New Roman;strokeColor=#6c8ebf;" parent="1" vertex="1">
          <mxGeometry x="200" y="-190" width="160" height="30" as="geometry" />
        </mxCell>
        <mxCell id="4TtnOZNpE7GWnTWrPaKu-8" value="2.1.2&#xa;&#xa;IN HÓA ĐƠN" style="swimlane;fontStyle=1;childLayout=stackLayout;horizontal=1;startSize=20;fillColor=#bac8d3;horizontalStack=0;resizeParent=1;resizeParentMax=0;resizeLast=0;collapsible=0;marginBottom=0;swimlaneFillColor=#bac8d3;fontSize=12;whiteSpace=wrap;gradientColor=none;rounded=1;glass=0;verticalAlign=top;spacing=-1;fontFamily=Times New Roman;" parent="1" vertex="1">
          <mxGeometry x="-40" y="-40" width="120" height="80" as="geometry" />
        </mxCell>
        <mxCell id="4TtnOZNpE7GWnTWrPaKu-9" value="2.1.3&#xa;&#xa;GIAO HÀNG" style="swimlane;fontStyle=1;childLayout=stackLayout;horizontal=1;startSize=20;fillColor=#bac8d3;horizontalStack=0;resizeParent=1;resizeParentMax=0;resizeLast=0;collapsible=0;marginBottom=0;swimlaneFillColor=#bac8d3;fontSize=12;whiteSpace=wrap;gradientColor=none;rounded=1;glass=0;verticalAlign=top;spacing=-1;fontFamily=Times New Roman;" parent="1" vertex="1">
          <mxGeometry x="-40" y="135" width="120" height="80" as="geometry" />
        </mxCell>
        <mxCell id="4TtnOZNpE7GWnTWrPaKu-10" value="" style="endArrow=classic;html=1;rounded=0;edgeStyle=orthogonalEdgeStyle;strokeColor=#FF0000;fontSize=12;jumpStyle=arc;fontFamily=Times New Roman;fontStyle=1" parent="1" source="4TtnOZNpE7GWnTWrPaKu-3" target="4TtnOZNpE7GWnTWrPaKu-8" edge="1">
          <mxGeometry width="50" height="50" relative="1" as="geometry">
            <mxPoint x="-270" y="-16" as="sourcePoint" />
            <mxPoint x="-110" y="-16" as="targetPoint" />
            <Array as="points">
              <mxPoint x="-240" y="-20" />
            </Array>
          </mxGeometry>
        </mxCell>
        <mxCell id="4TtnOZNpE7GWnTWrPaKu-11" value="" style="endArrow=classic;html=1;rounded=0;edgeStyle=orthogonalEdgeStyle;strokeColor=#7030A0;fontSize=12;jumpStyle=arc;fontFamily=Times New Roman;fontStyle=1" parent="1" source="4TtnOZNpE7GWnTWrPaKu-9" target="4TtnOZNpE7GWnTWrPaKu-1" edge="1">
          <mxGeometry width="50" height="50" relative="1" as="geometry">
            <mxPoint x="-30" y="70" as="sourcePoint" />
            <mxPoint x="-190" y="70" as="targetPoint" />
            <Array as="points">
              <mxPoint x="40" y="90" />
            </Array>
          </mxGeometry>
        </mxCell>
        <mxCell id="4TtnOZNpE7GWnTWrPaKu-12" value="" style="endArrow=classic;html=1;rounded=0;edgeStyle=orthogonalEdgeStyle;strokeColor=#00B050;fontSize=12;jumpStyle=arc;fontFamily=Times New Roman;fontStyle=1;movable=1;resizable=1;rotatable=1;deletable=1;editable=1;locked=0;connectable=1;" parent="1" source="4TtnOZNpE7GWnTWrPaKu-16" target="4TtnOZNpE7GWnTWrPaKu-6" edge="1">
          <mxGeometry width="50" height="50" relative="1" as="geometry">
            <mxPoint x="-200" y="-242.42000000000002" as="sourcePoint" />
            <mxPoint x="-40" y="-242.42000000000002" as="targetPoint" />
            <Array as="points">
              <mxPoint x="-260" y="-160" />
            </Array>
          </mxGeometry>
        </mxCell>
        <mxCell id="4TtnOZNpE7GWnTWrPaKu-13" value="" style="endArrow=classic;html=1;rounded=0;edgeStyle=orthogonalEdgeStyle;strokeColor=#FFC000;fontSize=12;jumpStyle=arc;fontFamily=Times New Roman;fontStyle=1" parent="1" source="4TtnOZNpE7GWnTWrPaKu-8" target="4TtnOZNpE7GWnTWrPaKu-2" edge="1">
          <mxGeometry width="50" height="50" relative="1" as="geometry">
            <mxPoint x="-170" y="30" as="sourcePoint" />
            <mxPoint x="-330" y="30" as="targetPoint" />
            <Array as="points">
              <mxPoint x="-330" y="20" />
              <mxPoint x="-330" y="250" />
            </Array>
          </mxGeometry>
        </mxCell>
        <mxCell id="4TtnOZNpE7GWnTWrPaKu-14" value="Thông tin đơn hàng" style="text;html=1;align=center;verticalAlign=middle;resizable=0;points=[];autosize=1;strokeColor=none;fillColor=none;fontSize=12;fontStyle=1;rotation=0;" parent="1" vertex="1">
          <mxGeometry x="-220" y="-185" width="140" height="30" as="geometry" />
        </mxCell>
        <mxCell id="4TtnOZNpE7GWnTWrPaKu-15" value="" style="endArrow=classic;html=1;rounded=0;edgeStyle=orthogonalEdgeStyle;strokeColor=#00b0f0;fontSize=12;jumpStyle=arc;fontFamily=Times New Roman;fontStyle=1" parent="1" source="4TtnOZNpE7GWnTWrPaKu-7" target="4TtnOZNpE7GWnTWrPaKu-6" edge="1">
          <mxGeometry width="50" height="50" relative="1" as="geometry">
            <mxPoint x="260" y="-217" as="sourcePoint" />
            <mxPoint x="100" y="-217" as="targetPoint" />
            <Array as="points">
              <mxPoint x="130" y="-175" />
              <mxPoint x="130" y="-175" />
            </Array>
          </mxGeometry>
        </mxCell>
        <mxCell id="4TtnOZNpE7GWnTWrPaKu-16" value="Khách" style="html=1;dashed=0;whiteSpace=wrap;fontStyle=1;fillColor=#f5f5f5;fontColor=#333333;strokeColor=#00B050;strokeWidth=2;fontFamily=Times New Roman;fontSize=12;" parent="1" vertex="1">
          <mxGeometry x="-310" y="-267" width="100" height="50" as="geometry" />
        </mxCell>
        <mxCell id="4TtnOZNpE7GWnTWrPaKu-17" value="" style="endArrow=classic;html=1;rounded=0;edgeStyle=orthogonalEdgeStyle;strokeColor=#00B050;fontSize=12;jumpStyle=arc;fontFamily=Times New Roman;fontStyle=1;movable=1;resizable=1;rotatable=1;deletable=1;editable=1;locked=0;connectable=1;" parent="1" source="4TtnOZNpE7GWnTWrPaKu-6" target="4TtnOZNpE7GWnTWrPaKu-16" edge="1">
          <mxGeometry width="50" height="50" relative="1" as="geometry">
            <mxPoint x="70" y="-233" as="sourcePoint" />
            <mxPoint x="-150" y="-290" as="targetPoint" />
            <Array as="points">
              <mxPoint y="-242" />
            </Array>
          </mxGeometry>
        </mxCell>
        <mxCell id="4TtnOZNpE7GWnTWrPaKu-18" value="&quot;Thông tin đơn hàng không hợp lệ&quot;" style="text;html=1;align=center;verticalAlign=middle;resizable=0;points=[];autosize=1;strokeColor=none;fillColor=none;fontSize=12;fontStyle=1;rotation=0;" parent="1" vertex="1">
          <mxGeometry x="-210" y="-267" width="230" height="30" as="geometry" />
        </mxCell>
        <mxCell id="4TtnOZNpE7GWnTWrPaKu-19" value="" style="endArrow=classic;html=1;rounded=0;edgeStyle=orthogonalEdgeStyle;strokeColor=#000000;fontSize=12;jumpStyle=arc;fontFamily=Times New Roman;fontStyle=1" parent="1" source="4TtnOZNpE7GWnTWrPaKu-6" target="4TtnOZNpE7GWnTWrPaKu-8" edge="1">
          <mxGeometry width="50" height="50" relative="1" as="geometry">
            <mxPoint x="-40" y="-80" as="sourcePoint" />
            <mxPoint x="120" y="-80" as="targetPoint" />
            <Array as="points">
              <mxPoint x="40" y="-90" />
              <mxPoint x="40" y="-90" />
            </Array>
          </mxGeometry>
        </mxCell>
        <mxCell id="4TtnOZNpE7GWnTWrPaKu-20" value="&quot;Thông tin hợp lệ&quot;" style="text;html=1;align=center;verticalAlign=middle;resizable=0;points=[];autosize=1;strokeColor=none;fillColor=none;fontSize=12;fontStyle=1;rotation=0;" parent="1" vertex="1">
          <mxGeometry x="-20" y="-120" width="130" height="30" as="geometry" />
        </mxCell>
        <mxCell id="4TtnOZNpE7GWnTWrPaKu-21" value="" style="endArrow=classic;html=1;rounded=0;edgeStyle=orthogonalEdgeStyle;strokeColor=#000000;fontSize=12;jumpStyle=arc;fontFamily=Times New Roman;fontStyle=1" parent="1" source="4TtnOZNpE7GWnTWrPaKu-6" target="4TtnOZNpE7GWnTWrPaKu-8" edge="1">
          <mxGeometry width="50" height="50" relative="1" as="geometry">
            <mxPoint y="-120" as="sourcePoint" />
            <mxPoint y="-40" as="targetPoint" />
            <Array as="points">
              <mxPoint y="-80" />
              <mxPoint y="-80" />
            </Array>
          </mxGeometry>
        </mxCell>
        <mxCell id="4TtnOZNpE7GWnTWrPaKu-22" value="Thông tin đơn hàng" style="text;html=1;align=center;verticalAlign=middle;resizable=0;points=[];autosize=1;strokeColor=none;fillColor=none;fontSize=12;fontStyle=1;rotation=0;" parent="1" vertex="1">
          <mxGeometry x="-80" y="-90" width="140" height="30" as="geometry" />
        </mxCell>
        <mxCell id="4TtnOZNpE7GWnTWrPaKu-23" value="" style="endArrow=classic;html=1;rounded=0;edgeStyle=orthogonalEdgeStyle;strokeColor=#FF0000;fontSize=12;jumpStyle=arc;fontFamily=Times New Roman;fontStyle=1" parent="1" source="4TtnOZNpE7GWnTWrPaKu-8" target="4TtnOZNpE7GWnTWrPaKu-3" edge="1">
          <mxGeometry width="50" height="50" relative="1" as="geometry">
            <mxPoint x="-30" y="-6" as="sourcePoint" />
            <mxPoint x="-250" y="-50" as="targetPoint" />
            <Array as="points">
              <mxPoint x="-280" />
            </Array>
          </mxGeometry>
        </mxCell>
        <mxCell id="4TtnOZNpE7GWnTWrPaKu-24" value="Thông tin đơn hàng" style="text;html=1;align=center;verticalAlign=middle;resizable=0;points=[];autosize=1;strokeColor=none;fillColor=none;fontSize=12;fontStyle=1;rotation=0;" parent="1" vertex="1">
          <mxGeometry x="-220" y="-25" width="140" height="30" as="geometry" />
        </mxCell>
        <mxCell id="4TtnOZNpE7GWnTWrPaKu-25" value="Thông tin hóa đơn" style="text;html=1;align=center;verticalAlign=middle;resizable=0;points=[];autosize=1;strokeColor=none;fillColor=none;fontSize=12;fontStyle=1;rotation=0;" parent="1" vertex="1">
          <mxGeometry x="-215" y="-45" width="130" height="30" as="geometry" />
        </mxCell>
        <mxCell id="4TtnOZNpE7GWnTWrPaKu-26" value="Bản sao hóa đơn" style="text;html=1;align=center;verticalAlign=middle;resizable=0;points=[];autosize=1;strokeColor=none;fillColor=none;fontSize=12;fontStyle=1;rotation=0;" parent="1" vertex="1">
          <mxGeometry x="-160" y="65" width="120" height="30" as="geometry" />
        </mxCell>
        <mxCell id="4TtnOZNpE7GWnTWrPaKu-27" value="" style="endArrow=classic;html=1;rounded=0;edgeStyle=orthogonalEdgeStyle;strokeColor=#7030A0;fontSize=12;jumpStyle=arc;fontFamily=Times New Roman;fontStyle=1" parent="1" source="4TtnOZNpE7GWnTWrPaKu-1" target="4TtnOZNpE7GWnTWrPaKu-9" edge="1">
          <mxGeometry width="50" height="50" relative="1" as="geometry">
            <mxPoint x="-200" y="80" as="sourcePoint" />
            <mxPoint x="30" y="50" as="targetPoint" />
            <Array as="points">
              <mxPoint y="110" />
            </Array>
          </mxGeometry>
        </mxCell>
        <mxCell id="4TtnOZNpE7GWnTWrPaKu-28" value="Xác nhận giao hàng" style="text;html=1;align=center;verticalAlign=middle;resizable=0;points=[];autosize=1;strokeColor=none;fillColor=none;fontSize=12;fontStyle=1;rotation=0;" parent="1" vertex="1">
          <mxGeometry x="-170" y="85" width="140" height="30" as="geometry" />
        </mxCell>
        <mxCell id="4TtnOZNpE7GWnTWrPaKu-29" value="Bản sao hóa đơn" style="text;html=1;align=center;verticalAlign=middle;resizable=0;points=[];autosize=1;strokeColor=none;fillColor=none;fontSize=12;fontStyle=1;rotation=0;" parent="1" vertex="1">
          <mxGeometry x="-240" y="-5" width="120" height="30" as="geometry" />
        </mxCell>
        <mxCell id="4TtnOZNpE7GWnTWrPaKu-30" value="" style="endArrow=classic;html=1;rounded=0;edgeStyle=orthogonalEdgeStyle;strokeColor=#00B050;fontSize=12;jumpStyle=arc;fontFamily=Times New Roman;fontStyle=1;movable=1;resizable=1;rotatable=1;deletable=1;editable=1;locked=0;connectable=1;" parent="1" source="4TtnOZNpE7GWnTWrPaKu-9" target="4TtnOZNpE7GWnTWrPaKu-16" edge="1">
          <mxGeometry width="50" height="50" relative="1" as="geometry">
            <mxPoint x="30" y="272" as="sourcePoint" />
            <mxPoint x="-190" y="215" as="targetPoint" />
            <Array as="points">
              <mxPoint x="20" y="270" />
              <mxPoint x="-340" y="270" />
              <mxPoint x="-340" y="-242" />
            </Array>
          </mxGeometry>
        </mxCell>
        <mxCell id="4TtnOZNpE7GWnTWrPaKu-31" value="Hóa đơn" style="text;html=1;align=center;verticalAlign=middle;resizable=0;points=[];autosize=1;strokeColor=none;fillColor=none;fontSize=12;fontStyle=1;rotation=0;" parent="1" vertex="1">
          <mxGeometry x="-155" y="245" width="70" height="30" as="geometry" />
        </mxCell>
        <mxCell id="4TtnOZNpE7GWnTWrPaKu-32" value="" style="endArrow=classic;html=1;rounded=0;edgeStyle=orthogonalEdgeStyle;strokeColor=#7030A0;fontSize=12;jumpStyle=arc;fontFamily=Times New Roman;fontStyle=1" parent="1" source="4TtnOZNpE7GWnTWrPaKu-1" target="4TtnOZNpE7GWnTWrPaKu-9" edge="1">
          <mxGeometry width="50" height="50" relative="1" as="geometry">
            <mxPoint x="-200" y="100" as="sourcePoint" />
            <mxPoint x="30" y="130" as="targetPoint" />
            <Array as="points">
              <mxPoint x="-260" y="180" />
            </Array>
          </mxGeometry>
        </mxCell>
        <mxCell id="4TtnOZNpE7GWnTWrPaKu-33" value="Trạng thái đơn hàng" style="text;html=1;align=center;verticalAlign=middle;resizable=0;points=[];autosize=1;strokeColor=none;fillColor=none;fontSize=12;fontStyle=1;rotation=0;" parent="1" vertex="1">
          <mxGeometry x="-220" y="155" width="140" height="30" as="geometry" />
        </mxCell>
        <mxCell id="4TtnOZNpE7GWnTWrPaKu-35" value="" style="endArrow=classic;html=1;rounded=0;edgeStyle=orthogonalEdgeStyle;strokeColor=#FFC000;fontSize=12;jumpStyle=arc;fontFamily=Times New Roman;fontStyle=1" parent="1" source="4TtnOZNpE7GWnTWrPaKu-2" target="4TtnOZNpE7GWnTWrPaKu-8" edge="1">
          <mxGeometry width="50" height="50" relative="1" as="geometry">
            <mxPoint x="-300" y="250" as="sourcePoint" />
            <mxPoint x="-30" y="30" as="targetPoint" />
            <Array as="points">
              <mxPoint x="-320" y="230" />
              <mxPoint x="-320" y="60" />
              <mxPoint x="20" y="60" />
            </Array>
          </mxGeometry>
        </mxCell>
        <mxCell id="4TtnOZNpE7GWnTWrPaKu-36" value="Thông tin tồn kho" style="text;html=1;align=center;verticalAlign=middle;resizable=0;points=[];autosize=1;strokeColor=none;fillColor=none;fontSize=12;fontStyle=1;rotation=0;" parent="1" vertex="1">
          <mxGeometry x="-215" y="35" width="120" height="30" as="geometry" />
        </mxCell>
        <mxCell id="4TtnOZNpE7GWnTWrPaKu-37" value="" style="endArrow=classic;html=1;rounded=0;edgeStyle=orthogonalEdgeStyle;strokeColor=#000000;fontSize=12;jumpStyle=arc;fontFamily=Times New Roman;fontStyle=1" parent="1" source="4TtnOZNpE7GWnTWrPaKu-8" target="4TtnOZNpE7GWnTWrPaKu-9" edge="1">
          <mxGeometry width="50" height="50" relative="1" as="geometry">
            <mxPoint x="70" y="45" as="sourcePoint" />
            <mxPoint x="70" y="125" as="targetPoint" />
            <Array as="points">
              <mxPoint x="60" y="100" />
              <mxPoint x="60" y="100" />
            </Array>
          </mxGeometry>
        </mxCell>
        <mxCell id="4TtnOZNpE7GWnTWrPaKu-38" value="Bản sao hóa đơn" style="text;html=1;align=center;verticalAlign=middle;resizable=0;points=[];autosize=1;strokeColor=none;fillColor=none;fontSize=12;fontStyle=1;rotation=0;" parent="1" vertex="1">
          <mxGeometry y="65" width="120" height="30" as="geometry" />
        </mxCell>
        <mxCell id="4TtnOZNpE7GWnTWrPaKu-40" value="" style="endArrow=classic;html=1;rounded=0;edgeStyle=orthogonalEdgeStyle;strokeColor=#00b0f0;fontSize=12;jumpStyle=arc;fontFamily=Times New Roman;fontStyle=1" parent="1" source="4TtnOZNpE7GWnTWrPaKu-8" target="4TtnOZNpE7GWnTWrPaKu-5" edge="1">
          <mxGeometry width="50" height="50" relative="1" as="geometry">
            <mxPoint x="80" y="-0.4199999999999875" as="sourcePoint" />
            <mxPoint x="200" y="-0.4199999999999875" as="targetPoint" />
            <Array as="points" />
          </mxGeometry>
        </mxCell>
        <mxCell id="4TtnOZNpE7GWnTWrPaKu-41" value="" style="endArrow=classic;html=1;rounded=0;edgeStyle=orthogonalEdgeStyle;strokeColor=#00b0f0;fontSize=12;jumpStyle=arc;fontFamily=Times New Roman;fontStyle=1" parent="1" source="4TtnOZNpE7GWnTWrPaKu-8" target="4TtnOZNpE7GWnTWrPaKu-4" edge="1">
          <mxGeometry width="50" height="50" relative="1" as="geometry">
            <mxPoint x="90" y="10" as="sourcePoint" />
            <mxPoint x="210" y="10" as="targetPoint" />
            <Array as="points">
              <mxPoint x="270" y="20" />
            </Array>
          </mxGeometry>
        </mxCell>
        <mxCell id="ByFL7iE2w1TJp2McbHyO-1" value="1&lt;span style=&quot;white-space: pre; font-size: 12px;&quot;&gt;&#x9;&lt;/span&gt;Danh sách thông tin khách hàng" style="html=1;dashed=0;whiteSpace=wrap;shape=mxgraph.dfd.dataStoreID;align=left;spacingLeft=8;points=[[0,0],[0.5,0],[1,0],[0,0.5],[1,0.5],[0,1],[0.5,1],[1,1]];fontSize=12;verticalAlign=middle;fillColor=#dae8fc;fontStyle=1;fontFamily=Times New Roman;strokeColor=#6c8ebf;" parent="1" vertex="1">
          <mxGeometry x="175" y="-267" width="210" height="30" as="geometry" />
        </mxCell>
        <mxCell id="ByFL7iE2w1TJp2McbHyO-2" value="" style="endArrow=classic;html=1;rounded=0;edgeStyle=orthogonalEdgeStyle;strokeColor=#00b0f0;fontSize=12;jumpStyle=arc;fontFamily=Times New Roman;fontStyle=1" parent="1" source="ByFL7iE2w1TJp2McbHyO-1" target="4TtnOZNpE7GWnTWrPaKu-6" edge="1">
          <mxGeometry width="50" height="50" relative="1" as="geometry">
            <mxPoint x="290" y="-135" as="sourcePoint" />
            <mxPoint x="90" y="-10" as="targetPoint" />
            <Array as="points">
              <mxPoint x="290" y="-220" />
              <mxPoint x="40" y="-220" />
            </Array>
          </mxGeometry>
        </mxCell>
        <mxCell id="MfHF-ZdOyuvsZbLHo-wM-1" value="10&lt;span style=&quot;white-space: pre; font-size: 12px;&quot;&gt;&#x9;&lt;/span&gt;&amp;nbsp;Danh sách ưu đãi, khuyến mãi" style="html=1;dashed=0;whiteSpace=wrap;shape=mxgraph.dfd.dataStoreID;align=left;spacingLeft=8;points=[[0,0],[0.5,0],[1,0],[0,0.5],[1,0.5],[0,1],[0.5,1],[1,1]];fontSize=12;verticalAlign=middle;fillColor=#dae8fc;fontStyle=1;fontFamily=Times New Roman;strokeColor=#6c8ebf;" vertex="1" parent="1">
          <mxGeometry x="185" y="-100" width="200" height="30" as="geometry" />
        </mxCell>
        <mxCell id="MfHF-ZdOyuvsZbLHo-wM-2" value="" style="endArrow=classic;html=1;rounded=0;edgeStyle=orthogonalEdgeStyle;strokeColor=#00b0f0;fontSize=12;jumpStyle=arc;fontFamily=Times New Roman;fontStyle=1" edge="1" parent="1" source="MfHF-ZdOyuvsZbLHo-wM-1" target="4TtnOZNpE7GWnTWrPaKu-6">
          <mxGeometry width="50" height="50" relative="1" as="geometry">
            <mxPoint x="210" y="-165" as="sourcePoint" />
            <mxPoint x="90" y="-165" as="targetPoint" />
            <Array as="points">
              <mxPoint x="285" y="-140" />
            </Array>
          </mxGeometry>
        </mxCell>
      </root>
    </mxGraphModel>
  </diagram>
  <diagram id="5YC-sVqUsz_AD8XEJ_KC" name="2.2">
    <mxGraphModel dx="1450" dy="1071" grid="1" gridSize="10" guides="1" tooltips="1" connect="0" arrows="0" fold="1" page="0" pageScale="1" pageWidth="850" pageHeight="1100" math="0" shadow="0">
      <root>
        <mxCell id="0" />
        <mxCell id="1" parent="0" />
        <mxCell id="tN8WH-kPyGWbpv6krztp-1" value="Nhân viên" style="html=1;dashed=0;whiteSpace=wrap;fontStyle=1;fillColor=#f5f5f5;strokeColor=#FF0000;fontColor=#333333;strokeWidth=2;fontFamily=Times New Roman;fontSize=12;" parent="1" vertex="1">
          <mxGeometry x="-310" y="-25" width="100" height="50" as="geometry" />
        </mxCell>
        <mxCell id="tN8WH-kPyGWbpv6krztp-2" value="5&lt;span style=&quot;white-space: pre; font-size: 12px;&quot;&gt;&#x9;&lt;/span&gt;Danh sách đơn hàng" style="html=1;dashed=0;whiteSpace=wrap;shape=mxgraph.dfd.dataStoreID;align=left;spacingLeft=8;points=[[0,0],[0.5,0],[1,0],[0,0.5],[1,0.5],[0,1],[0.5,1],[1,1]];fontSize=12;verticalAlign=middle;fillColor=#dae8fc;fontStyle=1;fontFamily=Times New Roman;strokeColor=#6c8ebf;" parent="1" vertex="1">
          <mxGeometry x="200" y="-15" width="150" height="30" as="geometry" />
        </mxCell>
        <mxCell id="tN8WH-kPyGWbpv6krztp-3" value="2.2.1&#xa;&#xa; TÌM ĐƠN HÀNG CẦN CHỈNH SỬA" style="swimlane;fontStyle=1;childLayout=stackLayout;horizontal=1;startSize=20;fillColor=#bac8d3;horizontalStack=0;resizeParent=1;resizeParentMax=0;resizeLast=0;collapsible=0;marginBottom=0;swimlaneFillColor=#bac8d3;fontSize=12;whiteSpace=wrap;gradientColor=none;rounded=1;glass=0;verticalAlign=top;spacing=-1;fontFamily=Times New Roman;" parent="1" vertex="1">
          <mxGeometry x="-40" y="-200" width="120" height="80" as="geometry" />
        </mxCell>
        <mxCell id="tN8WH-kPyGWbpv6krztp-4" value="" style="endArrow=classic;html=1;rounded=0;edgeStyle=orthogonalEdgeStyle;strokeColor=#FF0000;fontSize=12;jumpStyle=arc;fontFamily=Times New Roman;fontStyle=1" parent="1" source="tN8WH-kPyGWbpv6krztp-1" target="tN8WH-kPyGWbpv6krztp-3" edge="1">
          <mxGeometry width="50" height="50" relative="1" as="geometry">
            <mxPoint x="-280" y="-70" as="sourcePoint" />
            <mxPoint x="-120" y="-70" as="targetPoint" />
            <Array as="points">
              <mxPoint x="-280" y="-180" />
            </Array>
          </mxGeometry>
        </mxCell>
        <mxCell id="tN8WH-kPyGWbpv6krztp-5" value="" style="endArrow=classic;html=1;rounded=0;edgeStyle=orthogonalEdgeStyle;strokeColor=#000000;fontSize=12;jumpStyle=arc;fontFamily=Times New Roman;fontStyle=1" parent="1" source="tN8WH-kPyGWbpv6krztp-3" target="tN8WH-kPyGWbpv6krztp-8" edge="1">
          <mxGeometry width="50" height="50" relative="1" as="geometry">
            <mxPoint x="-100" y="-90" as="sourcePoint" />
            <mxPoint x="60" y="-90" as="targetPoint" />
            <Array as="points">
              <mxPoint x="50" y="-60" />
              <mxPoint x="50" y="-60" />
            </Array>
          </mxGeometry>
        </mxCell>
        <mxCell id="tN8WH-kPyGWbpv6krztp-6" value="Thông tin tra cứu đơn hàng" style="text;html=1;align=center;verticalAlign=middle;resizable=0;points=[];autosize=1;strokeColor=none;fillColor=none;fontSize=12;fontStyle=1;rotation=0;" parent="1" vertex="1">
          <mxGeometry x="-230" y="-205" width="180" height="30" as="geometry" />
        </mxCell>
        <mxCell id="tN8WH-kPyGWbpv6krztp-7" value="" style="endArrow=classic;html=1;rounded=0;edgeStyle=orthogonalEdgeStyle;strokeColor=#00b0f0;fontSize=12;jumpStyle=arc;fontFamily=Times New Roman;fontStyle=1" parent="1" source="tN8WH-kPyGWbpv6krztp-2" target="tN8WH-kPyGWbpv6krztp-3" edge="1">
          <mxGeometry width="50" height="50" relative="1" as="geometry">
            <mxPoint x="260" y="-150.33999999999997" as="sourcePoint" />
            <mxPoint x="100" y="-150.33999999999997" as="targetPoint" />
            <Array as="points">
              <mxPoint x="275" y="-160" />
            </Array>
          </mxGeometry>
        </mxCell>
        <mxCell id="tN8WH-kPyGWbpv6krztp-8" value="2.2.2&#xa;&#xa;HIỂN THỊ ĐƠN HÀNG" style="swimlane;fontStyle=1;childLayout=stackLayout;horizontal=1;startSize=20;fillColor=#bac8d3;horizontalStack=0;resizeParent=1;resizeParentMax=0;resizeLast=0;collapsible=0;marginBottom=0;swimlaneFillColor=#bac8d3;fontSize=12;whiteSpace=wrap;gradientColor=none;rounded=1;glass=0;verticalAlign=top;spacing=-1;fontFamily=Times New Roman;" parent="1" vertex="1">
          <mxGeometry x="-40" y="-40" width="120" height="80" as="geometry" />
        </mxCell>
        <mxCell id="tN8WH-kPyGWbpv6krztp-9" value="2.2.3&#xa;&#xa;CẬP NHẬT THÔNG TIN" style="swimlane;fontStyle=1;childLayout=stackLayout;horizontal=1;startSize=20;fillColor=#bac8d3;horizontalStack=0;resizeParent=1;resizeParentMax=0;resizeLast=0;collapsible=0;marginBottom=0;swimlaneFillColor=#bac8d3;fontSize=12;whiteSpace=wrap;gradientColor=none;rounded=1;glass=0;verticalAlign=top;spacing=-1;fontFamily=Times New Roman;" parent="1" vertex="1">
          <mxGeometry x="-40" y="120" width="120" height="80" as="geometry" />
        </mxCell>
        <mxCell id="UPh9askL10ZHIknVt9uU-1" value="" style="endArrow=classic;html=1;rounded=0;edgeStyle=orthogonalEdgeStyle;strokeColor=#FF0000;fontSize=12;jumpStyle=arc;fontFamily=Times New Roman;fontStyle=1" parent="1" source="tN8WH-kPyGWbpv6krztp-3" target="tN8WH-kPyGWbpv6krztp-1" edge="1">
          <mxGeometry width="50" height="50" relative="1" as="geometry">
            <mxPoint x="-30" y="-170" as="sourcePoint" />
            <mxPoint x="-230" y="-15" as="targetPoint" />
            <Array as="points">
              <mxPoint x="-240" y="-140" />
            </Array>
          </mxGeometry>
        </mxCell>
        <mxCell id="UPh9askL10ZHIknVt9uU-2" value="&quot;Không tìm thấy&quot;" style="text;html=1;align=center;verticalAlign=middle;resizable=0;points=[];autosize=1;strokeColor=none;fillColor=none;fontSize=12;fontStyle=1;rotation=0;" parent="1" vertex="1">
          <mxGeometry x="-180" y="-165" width="120" height="30" as="geometry" />
        </mxCell>
        <mxCell id="UPh9askL10ZHIknVt9uU-3" value="&quot;Tìm thấy&quot;" style="text;html=1;align=center;verticalAlign=middle;resizable=0;points=[];autosize=1;strokeColor=none;fillColor=none;fontSize=12;fontStyle=1;rotation=0;" parent="1" vertex="1">
          <mxGeometry x="10" y="-120" width="80" height="30" as="geometry" />
        </mxCell>
        <mxCell id="UPh9askL10ZHIknVt9uU-4" value="" style="endArrow=classic;html=1;rounded=0;edgeStyle=orthogonalEdgeStyle;strokeColor=#000000;fontSize=12;jumpStyle=arc;fontFamily=Times New Roman;fontStyle=1" parent="1" source="tN8WH-kPyGWbpv6krztp-3" target="tN8WH-kPyGWbpv6krztp-8" edge="1">
          <mxGeometry width="50" height="50" relative="1" as="geometry">
            <mxPoint y="-110" as="sourcePoint" />
            <mxPoint y="-30" as="targetPoint" />
            <Array as="points">
              <mxPoint x="-10" y="-80" />
              <mxPoint x="-10" y="-80" />
            </Array>
          </mxGeometry>
        </mxCell>
        <mxCell id="UPh9askL10ZHIknVt9uU-5" value="Thông tin tra cứu đơn hàng" style="text;html=1;align=center;verticalAlign=middle;resizable=0;points=[];autosize=1;strokeColor=none;fillColor=none;fontSize=12;fontStyle=1;rotation=0;" parent="1" vertex="1">
          <mxGeometry x="-120" y="-90" width="180" height="30" as="geometry" />
        </mxCell>
        <mxCell id="UPh9askL10ZHIknVt9uU-6" value="" style="endArrow=classic;html=1;rounded=0;edgeStyle=orthogonalEdgeStyle;strokeColor=#FF0000;fontSize=12;jumpStyle=arc;fontFamily=Times New Roman;fontStyle=1" parent="1" source="tN8WH-kPyGWbpv6krztp-8" target="tN8WH-kPyGWbpv6krztp-1" edge="1">
          <mxGeometry width="50" height="50" relative="1" as="geometry">
            <mxPoint x="-30" y="-130" as="sourcePoint" />
            <mxPoint x="-180" y="-15" as="targetPoint" />
            <Array as="points">
              <mxPoint x="-10" y="60" />
              <mxPoint x="-240" y="60" />
            </Array>
          </mxGeometry>
        </mxCell>
        <mxCell id="UPh9askL10ZHIknVt9uU-7" value="Kết quả tra cứu thông tin đơn hàng" style="text;html=1;align=center;verticalAlign=middle;resizable=0;points=[];autosize=1;strokeColor=none;fillColor=none;fontSize=12;fontStyle=1;rotation=0;" parent="1" vertex="1">
          <mxGeometry x="-240" y="35" width="230" height="30" as="geometry" />
        </mxCell>
        <mxCell id="UPh9askL10ZHIknVt9uU-8" value="" style="endArrow=classic;html=1;rounded=0;edgeStyle=orthogonalEdgeStyle;strokeColor=#FF0000;fontSize=12;jumpStyle=arc;fontFamily=Times New Roman;fontStyle=1" parent="1" source="tN8WH-kPyGWbpv6krztp-1" target="tN8WH-kPyGWbpv6krztp-8" edge="1">
          <mxGeometry width="50" height="50" relative="1" as="geometry">
            <mxPoint x="-190" y="155" as="sourcePoint" />
            <mxPoint as="targetPoint" />
            <Array as="points" />
          </mxGeometry>
        </mxCell>
        <mxCell id="UPh9askL10ZHIknVt9uU-9" value="Thông tin mới của đơn hàng" style="text;html=1;align=center;verticalAlign=middle;resizable=0;points=[];autosize=1;strokeColor=none;fillColor=none;fontSize=12;fontStyle=1;rotation=0;" parent="1" vertex="1">
          <mxGeometry x="-220" y="-25" width="190" height="30" as="geometry" />
        </mxCell>
        <mxCell id="UPh9askL10ZHIknVt9uU-10" value="" style="endArrow=classic;html=1;rounded=0;edgeStyle=orthogonalEdgeStyle;strokeColor=#000000;fontSize=12;jumpStyle=arc;fontFamily=Times New Roman;fontStyle=1" parent="1" source="tN8WH-kPyGWbpv6krztp-8" target="tN8WH-kPyGWbpv6krztp-9" edge="1">
          <mxGeometry width="50" height="50" relative="1" as="geometry">
            <mxPoint x="20" y="20" as="sourcePoint" />
            <mxPoint x="19.66" y="130" as="targetPoint" />
            <Array as="points" />
          </mxGeometry>
        </mxCell>
        <mxCell id="UPh9askL10ZHIknVt9uU-11" value="Thông tin mới của đơn hàng" style="text;html=1;align=center;verticalAlign=middle;resizable=0;points=[];autosize=1;strokeColor=none;fillColor=none;fontSize=12;fontStyle=1;rotation=0;" parent="1" vertex="1">
          <mxGeometry x="-75" y="65" width="190" height="30" as="geometry" />
        </mxCell>
        <mxCell id="UPh9askL10ZHIknVt9uU-12" value="" style="endArrow=classic;html=1;rounded=0;edgeStyle=orthogonalEdgeStyle;strokeColor=#FF0000;fontSize=12;jumpStyle=arc;fontFamily=Times New Roman;fontStyle=1" parent="1" source="tN8WH-kPyGWbpv6krztp-9" target="tN8WH-kPyGWbpv6krztp-1" edge="1">
          <mxGeometry width="50" height="50" relative="1" as="geometry">
            <mxPoint x="-40" y="125" as="sourcePoint" />
            <mxPoint x="-270" y="110" as="targetPoint" />
            <Array as="points">
              <mxPoint x="-280" y="160" />
            </Array>
          </mxGeometry>
        </mxCell>
        <mxCell id="UPh9askL10ZHIknVt9uU-13" value="&quot;Cập nhật thành công&quot;" style="text;html=1;align=center;verticalAlign=middle;resizable=0;points=[];autosize=1;strokeColor=none;fillColor=none;fontSize=12;fontStyle=1;rotation=0;" parent="1" vertex="1">
          <mxGeometry x="-230" y="135" width="150" height="30" as="geometry" />
        </mxCell>
        <mxCell id="UPh9askL10ZHIknVt9uU-14" value="" style="endArrow=classic;html=1;rounded=0;edgeStyle=orthogonalEdgeStyle;strokeColor=#00b0f0;fontSize=12;jumpStyle=arc;fontFamily=Times New Roman;fontStyle=1" parent="1" source="tN8WH-kPyGWbpv6krztp-2" target="tN8WH-kPyGWbpv6krztp-8" edge="1">
          <mxGeometry width="50" height="50" relative="1" as="geometry">
            <mxPoint x="275" y="130" as="sourcePoint" />
            <mxPoint x="80" y="-15" as="targetPoint" />
            <Array as="points" />
          </mxGeometry>
        </mxCell>
        <mxCell id="UPh9askL10ZHIknVt9uU-15" value="" style="endArrow=classic;html=1;rounded=0;edgeStyle=orthogonalEdgeStyle;strokeColor=#00b0f0;fontSize=12;jumpStyle=arc;fontFamily=Times New Roman;fontStyle=1" parent="1" source="tN8WH-kPyGWbpv6krztp-9" target="tN8WH-kPyGWbpv6krztp-2" edge="1">
          <mxGeometry width="50" height="50" relative="1" as="geometry">
            <mxPoint x="90" y="10" as="sourcePoint" />
            <mxPoint x="210" y="10" as="targetPoint" />
            <Array as="points">
              <mxPoint x="275" y="160" />
            </Array>
          </mxGeometry>
        </mxCell>
      </root>
    </mxGraphModel>
  </diagram>
  <diagram id="C2VH5ggM4YU3o_KtjF20" name="2.3">
    <mxGraphModel dx="1450" dy="1071" grid="1" gridSize="10" guides="1" tooltips="1" connect="0" arrows="0" fold="1" page="0" pageScale="1" pageWidth="850" pageHeight="1100" math="0" shadow="0">
      <root>
        <mxCell id="0" />
        <mxCell id="1" parent="0" />
        <mxCell id="za7NCkwB9m7DurznvYbY-1" value="Nhân viên" style="html=1;dashed=0;whiteSpace=wrap;fontStyle=1;fillColor=#f5f5f5;strokeColor=#FF0000;fontColor=#333333;strokeWidth=2;fontFamily=Times New Roman;fontSize=12;" parent="1" vertex="1">
          <mxGeometry x="-320" y="135" width="100" height="50" as="geometry" />
        </mxCell>
        <mxCell id="za7NCkwB9m7DurznvYbY-2" value="5&lt;span style=&quot;white-space: pre; font-size: 12px;&quot;&gt;&#x9;&lt;/span&gt;Danh sách đơn hàng" style="html=1;dashed=0;whiteSpace=wrap;shape=mxgraph.dfd.dataStoreID;align=left;spacingLeft=8;points=[[0,0],[0.5,0],[1,0],[0,0.5],[1,0.5],[0,1],[0.5,1],[1,1]];fontSize=12;verticalAlign=middle;fillColor=#dae8fc;fontStyle=1;fontFamily=Times New Roman;strokeColor=#6c8ebf;" parent="1" vertex="1">
          <mxGeometry x="200" y="145" width="150" height="30" as="geometry" />
        </mxCell>
        <mxCell id="za7NCkwB9m7DurznvYbY-3" value="2.3.1&#xa;&#xa; TÌM ĐƠN HÀNG CẦN HỦY" style="swimlane;fontStyle=1;childLayout=stackLayout;horizontal=1;startSize=20;fillColor=#bac8d3;horizontalStack=0;resizeParent=1;resizeParentMax=0;resizeLast=0;collapsible=0;marginBottom=0;swimlaneFillColor=#bac8d3;fontSize=12;whiteSpace=wrap;gradientColor=none;rounded=1;glass=0;verticalAlign=top;spacing=-1;fontFamily=Times New Roman;" parent="1" vertex="1">
          <mxGeometry x="-40" y="-40" width="120" height="80" as="geometry" />
        </mxCell>
        <mxCell id="za7NCkwB9m7DurznvYbY-4" value="" style="endArrow=classic;html=1;rounded=0;edgeStyle=orthogonalEdgeStyle;strokeColor=#FF0000;fontSize=12;jumpStyle=arc;fontFamily=Times New Roman;fontStyle=1" parent="1" source="za7NCkwB9m7DurznvYbY-1" target="za7NCkwB9m7DurznvYbY-3" edge="1">
          <mxGeometry width="50" height="50" relative="1" as="geometry">
            <mxPoint x="-250" y="50" as="sourcePoint" />
            <mxPoint x="-90" y="50" as="targetPoint" />
            <Array as="points">
              <mxPoint x="-290" y="-20" />
            </Array>
          </mxGeometry>
        </mxCell>
        <mxCell id="za7NCkwB9m7DurznvYbY-5" value="" style="endArrow=classic;html=1;rounded=0;edgeStyle=orthogonalEdgeStyle;strokeColor=#000000;fontSize=12;jumpStyle=arc;fontFamily=Times New Roman;fontStyle=1" parent="1" source="za7NCkwB9m7DurznvYbY-3" target="za7NCkwB9m7DurznvYbY-8" edge="1">
          <mxGeometry width="50" height="50" relative="1" as="geometry">
            <mxPoint x="-50" y="80" as="sourcePoint" />
            <mxPoint x="110" y="80" as="targetPoint" />
            <Array as="points">
              <mxPoint x="50" y="70" />
              <mxPoint x="50" y="70" />
            </Array>
          </mxGeometry>
        </mxCell>
        <mxCell id="za7NCkwB9m7DurznvYbY-7" value="" style="endArrow=classic;html=1;rounded=0;edgeStyle=orthogonalEdgeStyle;strokeColor=#00b0f0;fontSize=12;jumpStyle=arc;fontFamily=Times New Roman;fontStyle=1" parent="1" source="za7NCkwB9m7DurznvYbY-2" target="za7NCkwB9m7DurznvYbY-3" edge="1">
          <mxGeometry width="50" height="50" relative="1" as="geometry">
            <mxPoint x="290" y="-0.3400000000000034" as="sourcePoint" />
            <mxPoint x="130" y="-0.3400000000000034" as="targetPoint" />
            <Array as="points">
              <mxPoint x="275" />
            </Array>
          </mxGeometry>
        </mxCell>
        <mxCell id="za7NCkwB9m7DurznvYbY-8" value="2.3.2&#xa;&#xa;XÁC NHẬN THÔNG TIN" style="swimlane;fontStyle=1;childLayout=stackLayout;horizontal=1;startSize=20;fillColor=#bac8d3;horizontalStack=0;resizeParent=1;resizeParentMax=0;resizeLast=0;collapsible=0;marginBottom=0;swimlaneFillColor=#bac8d3;fontSize=12;whiteSpace=wrap;gradientColor=none;rounded=1;glass=0;verticalAlign=top;spacing=-1;fontFamily=Times New Roman;" parent="1" vertex="1">
          <mxGeometry x="-40" y="120" width="120" height="80" as="geometry" />
        </mxCell>
        <mxCell id="za7NCkwB9m7DurznvYbY-9" value="2.3.2&#xa;&#xa; XÁC NHẬN HỦY ĐƠN HÀNG" style="swimlane;fontStyle=1;childLayout=stackLayout;horizontal=1;startSize=20;fillColor=#bac8d3;horizontalStack=0;resizeParent=1;resizeParentMax=0;resizeLast=0;collapsible=0;marginBottom=0;swimlaneFillColor=#bac8d3;fontSize=12;whiteSpace=wrap;gradientColor=none;rounded=1;glass=0;verticalAlign=top;spacing=-1;fontFamily=Times New Roman;" parent="1" vertex="1">
          <mxGeometry x="-40" y="280" width="120" height="80" as="geometry" />
        </mxCell>
        <mxCell id="EwTxllrcsPD7LlMnHsRj-1" value="Thông tin tra cứu đơn hàng" style="text;html=1;align=center;verticalAlign=middle;resizable=0;points=[];autosize=1;strokeColor=none;fillColor=none;fontSize=12;fontStyle=1;rotation=0;" parent="1" vertex="1">
          <mxGeometry x="-230" y="-45" width="180" height="30" as="geometry" />
        </mxCell>
        <mxCell id="uVsDzkaXxvqSbhArDz9m-1" value="" style="endArrow=classic;html=1;rounded=0;edgeStyle=orthogonalEdgeStyle;strokeColor=#FF0000;fontSize=12;jumpStyle=arc;fontFamily=Times New Roman;fontStyle=1" parent="1" source="za7NCkwB9m7DurznvYbY-3" target="za7NCkwB9m7DurznvYbY-1" edge="1">
          <mxGeometry width="50" height="50" relative="1" as="geometry">
            <mxPoint x="20" y="30" as="sourcePoint" />
            <mxPoint x="-180" y="145" as="targetPoint" />
            <Array as="points">
              <mxPoint x="-250" y="20" />
            </Array>
          </mxGeometry>
        </mxCell>
        <mxCell id="uVsDzkaXxvqSbhArDz9m-2" value="&quot;Không tìm thấy&quot;" style="text;html=1;align=center;verticalAlign=middle;resizable=0;points=[];autosize=1;strokeColor=none;fillColor=none;fontSize=12;fontStyle=1;rotation=0;" parent="1" vertex="1">
          <mxGeometry x="-178" y="-5" width="120" height="30" as="geometry" />
        </mxCell>
        <mxCell id="EJhnEWH_F7lwZ4syXD5s-1" value="&quot;Tìm thấy&quot;" style="text;html=1;align=center;verticalAlign=middle;resizable=0;points=[];autosize=1;strokeColor=none;fillColor=none;fontSize=12;fontStyle=1;rotation=0;" parent="1" vertex="1">
          <mxGeometry x="10" y="40" width="80" height="30" as="geometry" />
        </mxCell>
        <mxCell id="EJhnEWH_F7lwZ4syXD5s-2" value="Thông tin tra cứu đơn hàng" style="text;html=1;align=center;verticalAlign=middle;resizable=0;points=[];autosize=1;strokeColor=none;fillColor=none;fontSize=12;fontStyle=1;rotation=0;" parent="1" vertex="1">
          <mxGeometry x="-120" y="80" width="180" height="30" as="geometry" />
        </mxCell>
        <mxCell id="EJhnEWH_F7lwZ4syXD5s-3" value="" style="endArrow=classic;html=1;rounded=0;edgeStyle=orthogonalEdgeStyle;strokeColor=#000000;fontSize=12;jumpStyle=arc;fontFamily=Times New Roman;fontStyle=1" parent="1" source="za7NCkwB9m7DurznvYbY-3" target="za7NCkwB9m7DurznvYbY-8" edge="1">
          <mxGeometry width="50" height="50" relative="1" as="geometry">
            <mxPoint x="-10" y="50" as="sourcePoint" />
            <mxPoint x="-10" y="130" as="targetPoint" />
            <Array as="points">
              <mxPoint x="-10" y="80" />
              <mxPoint x="-10" y="80" />
            </Array>
          </mxGeometry>
        </mxCell>
        <mxCell id="XCCSqgoOdakUU3Hxgz6P-1" value="" style="endArrow=classic;html=1;rounded=0;edgeStyle=orthogonalEdgeStyle;strokeColor=#FF0000;fontSize=12;jumpStyle=arc;fontFamily=Times New Roman;fontStyle=1" parent="1" source="za7NCkwB9m7DurznvYbY-8" target="za7NCkwB9m7DurznvYbY-1" edge="1">
          <mxGeometry width="50" height="50" relative="1" as="geometry">
            <mxPoint x="-30" y="30" as="sourcePoint" />
            <mxPoint x="-240" y="145" as="targetPoint" />
            <Array as="points">
              <mxPoint x="-10" y="220" />
              <mxPoint x="-250" y="220" />
            </Array>
          </mxGeometry>
        </mxCell>
        <mxCell id="lyxZ8U5F2XN35xDa4FBw-1" value="Kết quả tra cứu thông tin đơn hàng" style="text;html=1;align=center;verticalAlign=middle;resizable=0;points=[];autosize=1;strokeColor=none;fillColor=none;fontSize=12;fontStyle=1;rotation=0;" parent="1" vertex="1">
          <mxGeometry x="-244" y="195" width="230" height="30" as="geometry" />
        </mxCell>
        <mxCell id="CTgL4wvSGuBiRzmat7cw-1" value="" style="endArrow=classic;html=1;rounded=0;edgeStyle=orthogonalEdgeStyle;strokeColor=#FF0000;fontSize=12;jumpStyle=arc;fontFamily=Times New Roman;fontStyle=1" parent="1" source="za7NCkwB9m7DurznvYbY-1" target="za7NCkwB9m7DurznvYbY-8" edge="1">
          <mxGeometry width="50" height="50" relative="1" as="geometry">
            <mxPoint x="-280" y="145" as="sourcePoint" />
            <mxPoint x="-30" y="-10" as="targetPoint" />
            <Array as="points">
              <mxPoint x="-140" y="150" />
              <mxPoint x="-140" y="150" />
            </Array>
          </mxGeometry>
        </mxCell>
        <mxCell id="CTgL4wvSGuBiRzmat7cw-2" value="Danh sách sau khi hủy" style="text;html=1;align=center;verticalAlign=middle;resizable=0;points=[];autosize=1;strokeColor=none;fillColor=none;fontSize=12;fontStyle=1;rotation=0;" parent="1" vertex="1">
          <mxGeometry x="-208" y="125" width="150" height="30" as="geometry" />
        </mxCell>
        <mxCell id="CTgL4wvSGuBiRzmat7cw-3" value="" style="endArrow=classic;html=1;rounded=0;edgeStyle=orthogonalEdgeStyle;strokeColor=#000000;fontSize=12;jumpStyle=arc;fontFamily=Times New Roman;fontStyle=1" parent="1" source="za7NCkwB9m7DurznvYbY-8" target="za7NCkwB9m7DurznvYbY-9" edge="1">
          <mxGeometry width="50" height="50" relative="1" as="geometry">
            <mxPoint y="50" as="sourcePoint" />
            <mxPoint y="130" as="targetPoint" />
            <Array as="points">
              <mxPoint x="20" y="230" />
              <mxPoint x="20" y="230" />
            </Array>
          </mxGeometry>
        </mxCell>
        <mxCell id="CTgL4wvSGuBiRzmat7cw-5" value="Danh sách sau khi hủy" style="text;html=1;align=center;verticalAlign=middle;resizable=0;points=[];autosize=1;strokeColor=none;fillColor=none;fontSize=12;fontStyle=1;rotation=0;" parent="1" vertex="1">
          <mxGeometry x="-52" y="230" width="150" height="30" as="geometry" />
        </mxCell>
        <mxCell id="RXF7RIM2lMivEi-QMzZ9-1" value="" style="endArrow=classic;html=1;rounded=0;edgeStyle=orthogonalEdgeStyle;strokeColor=#FF0000;fontSize=12;jumpStyle=arc;fontFamily=Times New Roman;fontStyle=1" parent="1" source="za7NCkwB9m7DurznvYbY-9" target="za7NCkwB9m7DurznvYbY-1" edge="1">
          <mxGeometry width="50" height="50" relative="1" as="geometry">
            <mxPoint y="210" as="sourcePoint" />
            <mxPoint x="-240" y="195" as="targetPoint" />
            <Array as="points">
              <mxPoint x="-290" y="320" />
            </Array>
          </mxGeometry>
        </mxCell>
        <mxCell id="-Y4Hv_2hpTm-kjFN1jxL-1" value="&quot;Hủy đơn hàng thành công&quot;" style="text;html=1;align=center;verticalAlign=middle;resizable=0;points=[];autosize=1;strokeColor=none;fillColor=none;fontSize=12;fontStyle=1;rotation=0;" parent="1" vertex="1">
          <mxGeometry x="-259" y="295" width="180" height="30" as="geometry" />
        </mxCell>
        <mxCell id="-Y4Hv_2hpTm-kjFN1jxL-2" value="" style="endArrow=classic;html=1;rounded=0;edgeStyle=orthogonalEdgeStyle;strokeColor=#00b0f0;fontSize=12;jumpStyle=arc;fontFamily=Times New Roman;fontStyle=1" parent="1" source="za7NCkwB9m7DurznvYbY-2" target="za7NCkwB9m7DurznvYbY-8" edge="1">
          <mxGeometry width="50" height="50" relative="1" as="geometry">
            <mxPoint x="285" y="155" as="sourcePoint" />
            <mxPoint x="90" y="10" as="targetPoint" />
            <Array as="points">
              <mxPoint x="160" y="160" />
              <mxPoint x="160" y="160" />
            </Array>
          </mxGeometry>
        </mxCell>
        <mxCell id="-Y4Hv_2hpTm-kjFN1jxL-3" value="" style="endArrow=classic;html=1;rounded=0;edgeStyle=orthogonalEdgeStyle;strokeColor=#FF0000;fontSize=12;jumpStyle=arc;fontFamily=Times New Roman;fontStyle=1" parent="1" source="za7NCkwB9m7DurznvYbY-1" target="za7NCkwB9m7DurznvYbY-8" edge="1">
          <mxGeometry width="50" height="50" relative="1" as="geometry">
            <mxPoint x="-210" y="160" as="sourcePoint" />
            <mxPoint x="-30" y="160" as="targetPoint" />
            <Array as="points">
              <mxPoint x="-130" y="170" />
              <mxPoint x="-130" y="170" />
            </Array>
          </mxGeometry>
        </mxCell>
        <mxCell id="-Y4Hv_2hpTm-kjFN1jxL-4" value="&quot;Xác nhận hủy đơn hàng&quot;" style="text;html=1;align=center;verticalAlign=middle;resizable=0;points=[];autosize=1;strokeColor=none;fillColor=none;fontSize=12;fontStyle=1;rotation=0;" parent="1" vertex="1">
          <mxGeometry x="-218" y="145" width="170" height="30" as="geometry" />
        </mxCell>
        <mxCell id="JL1H-nUVAWyVs53p9-ou-1" value="" style="endArrow=classic;html=1;rounded=0;edgeStyle=orthogonalEdgeStyle;strokeColor=#00b0f0;fontSize=12;jumpStyle=arc;fontFamily=Times New Roman;fontStyle=1" parent="1" source="za7NCkwB9m7DurznvYbY-9" target="za7NCkwB9m7DurznvYbY-2" edge="1">
          <mxGeometry width="50" height="50" relative="1" as="geometry">
            <mxPoint x="98" y="280" as="sourcePoint" />
            <mxPoint x="293" y="425" as="targetPoint" />
            <Array as="points">
              <mxPoint x="275" y="320" />
            </Array>
          </mxGeometry>
        </mxCell>
      </root>
    </mxGraphModel>
  </diagram>
</mxfile>
